# Blender 4.1.1
# www.blender.org
mtllib Forest_3.mtl
o Wood.002
v 0.143445 -0.013556 0.117314
v 0.143445 0.235811 0.117314
v 0.202241 -0.013556 0.166927
v 0.202241 0.235811 0.182594
v 0.143445 -0.013556 0.232208
v 0.143445 0.235811 0.232208
v 0.084649 -0.013556 0.182594
v 0.084649 0.235811 0.166927
v -0.059812 0.380209 0.370962
v -0.035637 0.959519 -0.004253
v 0.294029 0.995632 0.324697
v 0.341897 0.380209 -0.027542
v 0.294029 0.995632 0.018723
v -0.011945 0.255622 0.018723
v -0.011945 0.255622 0.324697
v 0.294029 0.255622 0.018723
v 0.294029 0.255622 0.324697
v -0.137440 0.387600 0.172004
v -0.035637 0.959519 0.347673
v -0.045470 1.029157 0.171710
v 0.140749 0.387600 -0.106772
v 0.141042 1.029157 -0.014802
v 0.336290 0.828228 -0.023537
v 0.419525 0.387600 0.171416
v 0.327554 1.029157 0.171710
v 0.336290 0.828228 0.366957
v 0.141336 0.387601 0.450193
v 0.141042 1.029157 0.358222
v -0.045470 0.235092 0.171710
v 0.141042 0.235092 -0.014802
v 0.327554 0.235092 0.171710
v 0.141042 0.235092 0.358222
v 0.340294 0.380209 0.372565
v -0.058210 0.380209 -0.029144
v -0.127629 0.831533 0.171710
v 0.141042 0.831533 -0.096962
v 0.409714 0.831533 0.171710
v 0.141042 0.831533 0.440382
v 0.141042 1.099512 0.171710
v 0.141042 0.192010 0.171710
v -0.216750 -0.031306 0.184514
v -0.225911 0.124411 0.195431
v -0.282638 -0.031306 0.147832
v -0.284487 0.124411 0.178836
v -0.257911 0.124411 0.128836
v -0.413329 0.222483 0.086320
v -0.180751 0.595860 0.018250
v -0.316593 0.595860 0.309564
v -0.083423 0.222484 0.241770
v -0.102581 0.595860 0.231670
v -0.223330 0.128567 0.035216
v -0.377291 0.129062 0.138388
v -0.118644 0.129783 0.190053
v -0.274948 0.130283 0.293889
v -0.309942 0.227247 -0.004553
v -0.393895 0.595860 0.095828
v -0.296614 0.620456 0.031512
v -0.079778 0.227248 0.102479
v -0.116987 0.622449 0.114612
v -0.186810 0.227248 0.332643
v -0.200590 0.624449 0.295337
v -0.416974 0.227247 0.225611
v -0.380801 0.622449 0.210633
v -0.326101 0.222484 0.328998
v -0.170651 0.222484 -0.000908
v -0.248376 0.686089 0.164045
v -0.248376 0.101185 0.164045
v -0.141634 -0.034025 -0.232812
v -0.141634 0.184519 -0.232812
v -0.164038 -0.034025 -0.171781
v -0.176480 0.184519 -0.167252
v -0.232873 -0.034025 -0.199603
v -0.232873 0.184519 -0.199603
v -0.210469 -0.034025 -0.260635
v -0.198027 0.184519 -0.265163
v -0.401810 0.298740 -0.320909
v -0.096857 0.788308 -0.410162
v -0.274971 0.788308 -0.028195
v 0.030759 0.298741 -0.117086
v 0.005639 0.788308 -0.130328
v -0.152686 0.175598 -0.387917
v -0.354557 0.176247 -0.252640
v -0.015422 0.177193 -0.184896
v -0.220366 0.177848 -0.048748
v -0.266251 0.304987 -0.440062
v -0.376328 0.788308 -0.308443
v -0.239434 0.847158 -0.367111
v 0.035538 0.304987 -0.299722
v -0.037412 0.847158 -0.272906
v -0.104801 0.304987 0.002066
v -0.131617 0.847158 -0.070884
v -0.406590 0.304987 -0.138273
v -0.333639 0.847158 -0.165089
v -0.287437 0.298741 -0.002713
v -0.083614 0.298741 -0.435282
v -0.263182 0.680148 -0.432356
v 0.027832 0.680148 -0.296654
v -0.107870 0.680148 -0.005640
v -0.398884 0.680148 -0.141342
v -0.185526 0.906614 -0.218998
v -0.185526 0.139696 -0.218998
v 0.231823 0.124411 -0.287745
v 0.241642 0.124411 -0.231978
v 0.235852 -0.031306 -0.226997
v 0.188528 -0.031306 -0.285709
v 0.175439 0.124411 -0.264781
v 0.034067 0.222483 -0.218604
v 0.175510 0.595860 -0.415378
v 0.247692 0.595860 -0.102158
v 0.389772 0.222483 -0.299078
v 0.368456 0.595860 -0.295250
v 0.152387 0.128567 -0.375803
v 0.094514 0.129062 -0.199738
v 0.330186 0.129783 -0.318171
v 0.270874 0.130282 -0.140140
v 0.059643 0.227247 -0.353854
v 0.055236 0.595860 -0.223068
v 0.092341 0.620456 -0.333627
v 0.306933 0.227247 -0.411118
v 0.285069 0.622448 -0.378657
v 0.364196 0.227247 -0.163828
v 0.330378 0.624449 -0.184755
v 0.116906 0.227247 -0.106564
v 0.136203 0.622448 -0.140630
v 0.252157 0.222483 -0.080988
v 0.171682 0.222483 -0.436694
v 0.211920 0.686088 -0.258841
v 0.211920 0.101185 -0.258841
v 0.377086 0.062529 -0.073017
v 0.346967 -0.018834 -0.048728
v 0.350095 0.062529 -0.046250
v 0.341642 0.062529 -0.070741
v 0.372412 -0.018834 -0.078814
v 0.445966 0.264652 -0.101805
v 0.289344 0.322210 -0.071099
v 0.398589 0.264652 0.020871
v 0.354039 0.321656 0.007679
v 0.275913 0.264652 -0.026506
v 0.404113 0.321656 -0.121982
v 0.287528 0.070097 -0.092507
v 0.340163 0.067169 -0.137626
v 0.296173 0.067169 -0.023721
v 0.401180 0.066588 0.000416
v 0.448021 0.081629 -0.066795
v 0.427736 0.320403 -0.038359
v 0.327726 0.304688 -0.139164
v 0.393536 0.108341 -0.148560
v 0.328343 0.108341 0.020249
v 0.034831 0.057271 -0.423307
v 0.016958 -0.024092 -0.396991
v 0.020944 0.057271 -0.397181
v 0.016344 -0.024092 -0.436389
v 0.004224 0.057271 -0.431978
v -0.066937 0.259394 -0.457101
v 0.056638 0.259394 -0.502079
v -0.041165 0.316952 -0.375953
v 0.101616 0.259394 -0.378503
v 0.059378 0.316399 -0.359146
v -0.021959 0.259394 -0.333525
v 0.075844 0.316952 -0.459651
v -0.056610 0.064839 -0.390886
v -0.046627 0.061911 -0.459490
v -0.004864 0.061911 -0.344750
v 0.076592 0.076371 -0.353932
v 0.058831 0.061330 -0.481577
v -0.024699 0.316399 -0.476458
v 0.102363 0.103083 -0.448748
v -0.013606 0.103083 -0.502825
v -0.091249 0.057271 0.378257
v -0.105136 0.057271 0.404383
v -0.109122 -0.024092 0.404573
v -0.109736 -0.024092 0.365175
v -0.121856 0.057271 0.369586
v -0.069441 0.259394 0.299486
v -0.167396 0.316399 0.425801
v -0.024464 0.259394 0.423061
v -0.036785 0.316399 0.378263
v -0.148039 0.259394 0.468039
v -0.114288 0.316952 0.312046
v -0.172516 0.061330 0.342271
v -0.150429 0.061911 0.447729
v -0.044965 0.061330 0.425254
v -0.067052 0.061911 0.319796
v -0.084250 0.315145 0.451049
v -0.193764 0.103083 0.414709
v -0.183087 0.299430 0.349094
v -0.023717 0.103083 0.352816
v -0.139686 0.103083 0.298739
v -0.077794 0.103083 0.468786
v -0.384300 0.057271 -0.032524
v -0.398186 0.057271 -0.006398
v -0.402172 -0.024092 -0.006208
v -0.402787 -0.024092 -0.045606
v -0.414906 0.057271 -0.041195
v -0.486068 0.259394 -0.066318
v -0.362492 0.259394 -0.111296
v -0.460447 0.316399 0.015020
v -0.317514 0.259394 0.012280
v -0.359942 0.316952 0.031485
v -0.441090 0.259394 0.057258
v -0.343135 0.316399 -0.069058
v -0.465566 0.061330 -0.068510
v -0.443479 0.061911 0.036947
v -0.338015 0.061330 0.014473
v -0.360102 0.061911 -0.090985
v -0.486814 0.103083 0.003927
v -0.443640 0.316952 -0.085523
v -0.316767 0.103083 -0.057965
v -0.432737 0.103083 -0.112042
v -0.370845 0.103083 0.058005
vn 0.6987 0.0225 -0.7151
vn -0.2398 -0.9567 0.1653
vn -0.1605 -0.9587 -0.2350
vn -0.7700 -0.1481 0.6206
vn -0.0873 -0.9567 0.2779
vn -0.2711 -0.9587 -0.0864
vn -0.6390 0.5587 0.5287
vn 0.4577 0.5239 0.7184
vn 0.4460 -0.7195 -0.5323
vn 0.9715 0.0551 0.2307
vn 0.9691 -0.1494 0.1963
vn -0.9888 -0.1481 0.0154
vn -0.1337 0.5587 0.8185
vn -0.8176 0.5593 -0.1370
vn 0.1337 0.5587 -0.8185
vn 0.8176 0.5593 0.1370
vn 0.6971 -0.7169 -0.0125
vn 0.2079 0.0029 0.9782
vn -0.1588 -0.6525 -0.7409
vn 0.4744 0.0531 0.8787
vn -0.2402 0.5239 0.8172
vn -0.7409 -0.6525 0.1588
vn 0.7409 -0.6525 -0.1588
vn 0.1546 -0.6522 0.7421
vn -0.1546 -0.6522 -0.7421
vn -0.1370 0.5593 0.8176
vn -0.8185 0.5587 -0.1337
vn 0.1370 0.5593 -0.8176
vn 0.8185 0.5587 0.1337
vn 0.6987 -0.0225 0.7151
vn -0.6987 0.0225 0.7151
vn -0.6987 -0.0225 -0.7151
vn -0.0000 -1.0000 -0.0000
vn -0.9151 0.0396 0.4013
vn -0.9145 0.0386 -0.4028
vn -0.9048 0.3762 0.1994
vn -0.9048 0.3762 -0.1994
vn -0.4020 0.0400 -0.9148
vn 0.3088 0.3387 -0.8888
vn -0.2022 0.3760 -0.9043
vn 0.3597 0.0166 -0.9329
vn 0.9335 0.0179 -0.3582
vn 0.8888 0.3387 -0.3088
vn 0.8888 0.3387 0.3088
vn 0.9329 0.0166 0.3597
vn 0.3582 0.0179 0.9335
vn 0.3088 0.3387 0.8888
vn -0.4036 0.0390 0.9141
vn -0.2022 0.3760 0.9043
vn -0.2840 -0.4666 0.8376
vn 0.2818 -0.4696 0.8367
vn 0.3061 0.9015 -0.3061
vn -0.3462 0.8720 -0.3462
vn -0.3462 0.8720 0.3462
vn 0.3061 0.9015 0.3061
vn -0.1995 -0.9594 -0.1995
vn 0.1995 -0.9594 -0.1995
vn 0.1995 -0.9594 0.1995
vn -0.1995 -0.9594 0.1995
vn 0.2840 -0.4666 -0.8376
vn -0.2818 -0.4696 -0.8367
vn -0.8376 -0.4666 -0.2840
vn -0.8367 -0.4696 0.2818
vn 0.8376 -0.4666 0.2840
vn 0.8367 -0.4696 -0.2818
vn -0.3898 -0.1364 0.9107
vn 0.7247 -0.0540 -0.6869
vn -0.8800 0.0827 -0.4677
vn -0.6168 0.0730 -0.7837
vn -0.0293 0.0719 -0.9970
vn 0.7830 0.0733 -0.6177
vn 0.9968 0.0732 -0.0329
vn 0.6148 0.0746 0.7851
vn 0.0317 0.0736 0.9968
vn -0.7859 0.0742 0.6139
vn -0.9970 0.0723 0.0281
vn -0.6406 -0.6075 0.4698
vn -0.9307 -0.3656 -0.0118
vn 0.4480 0.8719 0.1976
vn 0.1976 0.8719 -0.4480
vn -0.4393 0.8719 -0.2162
vn -0.2162 0.8719 0.4393
vn 0.6389 -0.6092 -0.4697
vn 0.2424 -0.9575 -0.1564
vn 0.1611 -0.9555 0.2471
vn 0.9325 -0.3610 0.0121
vn -0.4720 -0.6070 -0.6393
vn 0.0119 -0.3648 -0.9310
vn 0.4676 -0.6095 0.6402
vn -0.0120 -0.3617 0.9322
vn 0.9109 0.0217 0.4120
vn -0.4330 -0.0217 0.9011
vn -0.9109 0.0217 -0.4120
vn 0.4330 -0.0217 -0.9011
vn -0.6900 0.0396 -0.7227
vn 0.0658 0.0386 -0.9971
vn -0.4969 0.3762 -0.7821
vn -0.1221 0.3762 -0.9185
vn 0.7221 0.0400 -0.6906
vn 0.9971 0.0386 0.0658
vn 0.7806 0.3760 -0.4993
vn 0.9185 0.3762 -0.1221
vn 0.6906 0.0400 0.7221
vn -0.0666 0.0390 0.9970
vn 0.4993 0.3760 0.7806
vn 0.1193 0.3760 0.9189
vn -0.7227 0.0396 0.6900
vn -0.9970 0.0390 -0.0666
vn -0.7821 0.3762 0.4969
vn -0.9189 0.3760 0.1193
vn 0.4437 0.8720 0.2069
vn 0.2069 0.8720 -0.4437
vn -0.4437 0.8720 -0.2069
vn -0.2069 0.8720 0.4437
vn 0.8847 -0.1494 -0.4416
vn -0.9685 0.0730 -0.2382
vn -0.4435 0.0451 0.8951
vn -0.3756 0.0924 -0.9222
vn -0.6366 0.0719 -0.7678
vn 0.2371 0.0733 -0.9687
vn 0.7655 0.0732 -0.6393
vn 0.9678 0.0746 0.2406
vn 0.6384 0.0736 0.7662
vn -0.2417 0.0742 0.9675
vn -0.7686 0.0723 0.6357
vn -0.2159 -0.6075 0.7645
vn -0.7409 -0.3656 0.5634
vn 0.4747 0.8719 -0.1199
vn -0.1199 0.8719 -0.4747
vn -0.4793 0.8719 0.0999
vn 0.0999 0.8719 0.4793
vn 0.2146 -0.6092 -0.7634
vn 0.0949 -0.9575 -0.2724
vn 0.2790 -0.9555 0.0956
vn 0.7425 -0.3610 -0.5643
vn -0.7655 -0.6070 -0.2135
vn -0.5635 -0.3648 -0.7412
vn 0.7625 -0.6095 0.2169
vn 0.5642 -0.3617 0.7422
vn 0.7333 -0.0696 0.6763
vn -0.4674 -0.0895 -0.8795
vn -0.9449 0.0264 0.3262
vn 0.8217 0.5239 -0.2243
vn -0.1732 -0.6525 0.7377
vn 0.0592 -0.9975 -0.0397
vn -0.5999 0.0378 0.7992
vn 0.0386 -0.0213 0.9990
vn 0.8600 -0.0121 0.5101
vn 0.7140 -0.0302 -0.6995
vn 0.0232 0.0555 -0.9982
vn -0.7785 0.0086 -0.6276
vn -0.9973 -0.0383 -0.0625
vn -0.0243 0.9969 -0.0744
vn -0.9004 0.0451 0.4327
vn 0.2714 0.0924 -0.9580
vn 0.0572 -0.9976 0.0403
vn 1.0000 0.0039 0.0019
vn 0.7653 0.0043 -0.6436
vn -0.0197 0.0136 -0.9997
vn -0.6434 0.0044 -0.7655
vn -0.9937 -0.0150 0.1108
vn -0.7925 -0.0383 0.6087
vn -0.0000 1.0000 -0.0000
vn 0.7093 0.5239 0.4716
vn 0.5410 0.5587 -0.6286
vn -0.0252 -0.0065 0.9997
vn 0.6221 0.0167 0.7828
vn 0.9981 -0.0213 0.0580
vn 0.8107 0.0378 -0.5843
vn 0.0553 -0.0201 -0.9983
vn -0.6399 0.0551 -0.7665
vn -0.9980 0.0370 -0.0517
vn -0.7655 0.0044 0.6434
vn -0.0739 0.9969 -0.0257
vn 0.0214 0.0144 0.9997
vn 0.6436 0.0043 0.7653
vn 0.9997 0.0136 -0.0197
vn 0.7655 0.0044 -0.6434
vn -0.0214 0.0144 -0.9997
vn -0.6436 0.0043 -0.7653
vn -0.9997 0.0136 0.0197
vt 0.764847 0.504438
vt 0.764923 0.504558
vt 0.767882 0.506931
vt 0.763046 0.507778
vt 0.603426 0.518997
vt 0.604464 0.534163
vt 0.600045 0.530386
vt 0.603148 0.518950
vt 0.604276 0.534018
vt 0.599805 0.530448
vt 0.603299 0.518011
vt 0.604380 0.533284
vt 0.599914 0.529570
vt 0.603216 0.518172
vt 0.604352 0.533371
vt 0.599844 0.529767
vt 0.765446 0.501414
vt 0.764862 0.504515
vt 0.764741 0.504474
vt 0.604464 0.534163
vt 0.604276 0.534018
vt 0.605634 0.579208
vt 0.605554 0.579354
vt 0.603255 0.578406
vt 0.608414 0.580058
vt 0.603294 0.577933
vt 0.608275 0.541848
vt 0.605372 0.543276
vt 0.604564 0.543851
vt 0.603318 0.578365
vt 0.764741 0.504474
vt 0.764862 0.504515
vt 0.767706 0.506965
vt 0.762956 0.507793
vt 0.605634 0.579208
vt 0.605554 0.579354
vt 0.605603 0.579343
vt 0.603176 0.578361
vt 0.605642 0.579137
vt 0.608251 0.541415
vt 0.605392 0.543290
vt 0.604681 0.543723
vt 0.604720 0.543941
vt 0.765446 0.501414
vt 0.608367 0.580697
vt 0.605580 0.579365
vt 0.608133 0.541843
vt 0.604585 0.543840
vt 0.604665 0.543884
vt 0.604686 0.543588
vt 0.604661 0.543736
vt 0.608334 0.542051
vt 0.605607 0.579193
vt 0.605576 0.579332
vt 0.605669 0.579146
vt 0.604585 0.543840
vt 0.764920 0.504281
vt 0.761991 0.501938
vt 0.765006 0.504397
vt 0.766810 0.501055
vt 0.598231 0.543977
vt 0.603298 0.545758
vt 0.603318 0.588031
vt 0.598176 0.580774
vt 0.603285 0.588077
vt 0.603321 0.545804
vt 0.608388 0.544042
vt 0.608430 0.580839
vt 0.599954 0.597150
vt 0.606645 0.597209
vt 0.598257 0.543959
vt 0.598153 0.580755
vt 0.603348 0.590769
vt 0.603342 0.578123
vt 0.608482 0.580256
vt 0.606718 0.596649
vt 0.599910 0.597153
vt 0.603326 0.545287
vt 0.608391 0.543460
vt 0.598260 0.543506
vt 0.598204 0.580303
vt 0.599983 0.596679
vt 0.603337 0.591378
vt 0.603356 0.578732
vt 0.608492 0.580964
vt 0.606696 0.597322
vt 0.603406 0.545897
vt 0.608474 0.544167
vt 0.598343 0.544019
vt 0.598214 0.580814
vt 0.599960 0.597224
vt 0.608362 0.543931
vt 0.608453 0.580727
vt 0.606690 0.597119
vt 0.603293 0.535897
vt 0.606652 0.530465
vt 0.603421 0.536036
vt 0.600068 0.530571
vt 0.603356 0.608947
vt 0.603267 0.609464
vt 0.603328 0.609417
vt 0.603310 0.609556
vt 0.603344 0.519000
vt 0.606695 0.530555
vt 0.603329 0.535944
vt 0.599973 0.530500
vt 0.603314 0.518482
vt 0.606680 0.529995
vt 0.603322 0.535427
vt 0.599958 0.530025
vt 0.603446 0.519092
vt 0.606790 0.530669
vt 0.599929 0.530496
vt 0.603285 0.518953
vt 0.764849 0.504426
vt 0.764753 0.504564
vt 0.764167 0.507582
vt 0.761922 0.502059
vt 0.766653 0.501193
vt 0.598114 0.543877
vt 0.603161 0.545651
vt 0.603180 0.587762
vt 0.599486 0.593685
vt 0.603323 0.587766
vt 0.603303 0.545656
vt 0.608348 0.543836
vt 0.607022 0.593656
vt 0.598256 0.543882
vt 0.599656 0.593937
vt 0.603298 0.587334
vt 0.603279 0.545223
vt 0.608324 0.543403
vt 0.606971 0.593471
vt 0.598232 0.543449
vt 0.599658 0.593752
vt 0.603227 0.587807
vt 0.603349 0.545698
vt 0.608400 0.544042
vt 0.606852 0.594310
vt 0.598308 0.543760
vt 0.599540 0.593858
vt 0.608206 0.543831
vt 0.606853 0.593899
vt 0.603308 0.608638
vt 0.603333 0.609071
vt 0.603190 0.609066
vt 0.603166 0.609110
vt 0.604440 0.533987
vt 0.599948 0.530453
vt 0.603291 0.518954
vt 0.604376 0.533619
vt 0.599923 0.530020
vt 0.603266 0.518521
vt 0.764814 0.504428
vt 0.764888 0.504546
vt 0.767911 0.506973
vt 0.762971 0.507842
vt 0.764886 0.504275
vt 0.761892 0.501876
vt 0.764970 0.504388
vt 0.766815 0.500972
vt 0.598136 0.543311
vt 0.603227 0.545104
vt 0.603244 0.587577
vt 0.598078 0.580281
vt 0.603369 0.587985
vt 0.603385 0.545512
vt 0.608475 0.543718
vt 0.608535 0.580689
vt 0.599864 0.596736
vt 0.606749 0.597144
vt 0.598296 0.543681
vt 0.598209 0.580651
vt 0.603365 0.588104
vt 0.603313 0.545631
vt 0.608400 0.543759
vt 0.608519 0.580728
vt 0.599982 0.597119
vt 0.606759 0.597211
vt 0.598222 0.543878
vt 0.598193 0.580849
vt 0.603251 0.587415
vt 0.603280 0.544942
vt 0.608371 0.543164
vt 0.608419 0.580135
vt 0.599992 0.597290
vt 0.606628 0.596584
vt 0.598192 0.543095
vt 0.598093 0.580065
vt 0.608315 0.543271
vt 0.608404 0.580242
vt 0.599861 0.596538
vt 0.606631 0.596710
vt 0.603391 0.609591
vt 0.603361 0.609473
vt 0.603252 0.609064
vt 0.603236 0.608902
vt 0.604542 0.533752
vt 0.600014 0.530151
vt 0.603395 0.518581
vt 0.604411 0.533919
vt 0.599918 0.530321
vt 0.603281 0.518700
vt 0.762956 0.507793
vt 0.603180 0.587762
vt 0.599486 0.593685
vt 0.607022 0.593656
vt 0.603298 0.587333
vt 0.606971 0.593471
vt 0.598232 0.543449
vt 0.603227 0.587807
vt 0.608400 0.544042
vt 0.608206 0.543831
vt 0.604440 0.533987
vt 0.604376 0.533619
vt 0.764741 0.504474
vt 0.764862 0.504515
vt 0.767074 0.503503
vt 0.605680 0.579345
vt 0.604663 0.543411
vt 0.608133 0.541843
vt 0.605655 0.578913
vt 0.605653 0.579334
s 0
usemtl Material
f 3/1/1 1/2/1 2/3/1 4/4/1
f 67/5/2 54/6/2 52/7/2
f 67/8/3 52/9/3 51/10/3
f 101/11/2 84/12/2 82/13/2
f 101/14/3 82/15/3 81/16/3
f 106/17/4 105/18/4 104/19/4
f 128/5/5 115/20/5 113/7/5
f 128/8/6 113/21/6 112/10/6
f 137/22/7 135/23/7 138/24/7
f 145/25/8 137/22/8 136/26/8
f 147/27/9 144/28/9 141/29/9
f 144/28/10 134/30/10 145/25/10
f 150/31/11 152/32/11 149/33/11 151/34/11
f 153/17/12 152/32/12 150/31/12
f 158/35/13 156/36/13 159/24/13
f 156/36/14 166/37/14 154/38/14
f 166/37/15 160/39/15 155/30/15
f 160/39/16 158/35/16 157/26/16
f 167/40/17 164/41/17 165/42/17
f 164/41/18 158/35/18 159/24/18 163/43/18
f 168/27/19 165/42/19 162/29/19
f 164/41/20 157/26/20 158/35/20
f 173/44/12 172/32/12 171/19/12
f 184/45/21 175/46/21 178/24/21
f 185/47/22 180/48/22 181/49/22
f 187/40/23 182/50/23 183/51/23
f 189/52/24 181/49/24 182/50/24
f 188/27/25 183/51/25 180/48/25
f 192/19/11 193/18/11 190/33/11 191/34/11
f 194/44/12 193/18/12 192/19/12
f 199/53/26 197/46/26 200/24/26
f 197/46/27 207/54/27 195/38/27
f 207/54/28 201/55/28 196/30/28
f 201/55/29 199/53/29 198/26/29
f 206/47/22 202/56/22 203/49/22
f 208/40/23 204/50/23 205/51/23
f 210/52/24 203/49/24 204/50/24
f 209/27/25 205/51/25 202/56/25
f 5/57/30 3/1/30 4/4/30 6/58/30
f 7/59/31 5/57/31 6/58/31 8/60/31
f 1/2/32 7/59/32 8/60/32 2/3/32
f 7/59/33 1/2/33 3/1/33 5/57/33
f 18/61/34 9/62/34 19/63/34 35/64/34
f 10/65/35 34/66/35 18/67/35 35/68/35
f 19/63/36 20/69/36 35/64/36
f 35/68/37 20/70/37 10/65/37
f 21/71/38 34/66/38 10/65/38 36/72/38
f 13/73/39 23/74/39 36/75/39 22/76/39
f 10/65/40 22/77/40 36/72/40
f 23/74/41 12/78/41 21/79/41 36/75/41
f 24/80/42 12/78/42 23/74/42 37/81/42
f 37/81/43 23/74/43 13/73/43 25/82/43
f 11/83/44 26/84/44 37/85/44 25/86/44
f 26/84/45 33/87/45 24/88/45 37/85/45
f 27/89/46 33/87/46 26/84/46 38/90/46
f 38/90/47 26/84/47 11/83/47 28/91/47
f 19/63/48 9/62/48 27/92/48 38/93/48
f 38/93/49 28/94/49 19/63/49
f 15/95/50 32/96/50 27/92/50 9/62/50
f 17/97/51 33/87/51 27/89/51 32/98/51
f 39/99/52 25/82/52 13/73/52 22/76/52
f 39/100/53 22/77/53 10/65/53 20/70/53
f 19/63/54 28/94/54 39/101/54 20/69/54
f 11/83/55 25/86/55 39/102/55 28/91/55
f 40/103/56 29/104/56 14/105/56 30/106/56
f 40/107/57 30/108/57 16/109/57 31/110/57
f 17/97/58 32/98/58 40/111/58 31/112/58
f 15/95/59 29/113/59 40/114/59 32/96/59
f 16/109/60 30/108/60 21/79/60 12/78/60
f 14/105/61 34/66/61 21/71/61 30/106/61
f 14/105/62 29/104/62 18/67/62 34/66/62
f 15/95/63 9/62/63 18/61/63 29/113/63
f 17/97/64 31/112/64 24/88/64 33/87/64
f 16/109/65 12/78/65 24/80/65 31/110/65
f 43/115/66 41/116/66 42/117/66 44/118/66
f 41/116/67 43/115/67 45/119/67 42/117/67
f 44/118/68 45/119/68 43/115/68
f 55/120/69 46/121/69 56/122/69 57/123/69
f 47/124/70 65/125/70 55/126/70 57/127/70
f 58/128/71 65/125/71 47/124/71 59/129/71
f 50/130/72 49/131/72 58/132/72 59/133/72
f 60/134/73 49/131/73 50/130/73 61/135/73
f 48/136/74 64/137/74 60/138/74 61/139/74
f 62/140/75 64/137/75 48/136/75 63/141/75
f 56/122/76 46/121/76 62/142/76 63/143/76
f 54/6/77 64/137/77 62/140/77 52/7/77
f 62/142/78 46/121/78 52/9/78
f 66/144/79 61/135/79 50/130/79 59/133/79
f 66/145/80 59/129/80 47/124/80 57/127/80
f 56/122/81 63/143/81 66/146/81 57/123/81
f 48/136/82 61/139/82 66/147/82 63/141/82
f 51/148/83 65/125/83 58/128/83 53/149/83
f 51/148/84 53/149/84 67/150/84
f 53/151/85 54/152/85 67/153/85
f 58/132/86 49/131/86 53/151/86
f 52/9/87 46/121/87 55/120/87 51/10/87
f 55/126/88 65/125/88 51/148/88
f 53/151/89 49/131/89 60/134/89 54/152/89
f 60/138/90 64/137/90 54/6/90
f 70/154/91 68/155/91 69/156/91 71/157/91
f 72/158/92 70/154/92 71/157/92 73/159/92
f 74/160/93 72/158/93 73/159/93 75/161/93
f 68/155/94 74/160/94 75/161/94 69/156/94
f 74/160/33 68/155/33 70/154/33 72/158/33
f 85/162/95 76/163/95 86/164/95 96/165/95
f 77/166/96 95/167/96 85/168/96 96/169/96
f 86/164/97 87/170/97 96/165/97
f 96/169/98 87/171/98 77/166/98
f 88/172/99 95/167/99 77/166/99 97/173/99
f 80/174/100 79/175/100 88/176/100 97/177/100
f 77/166/101 89/178/101 97/173/101
f 97/177/102 89/179/102 80/174/102
f 90/180/103 79/175/103 80/174/103 98/181/103
f 78/182/104 94/183/104 90/184/104 98/185/104
f 80/174/105 91/186/105 98/181/105
f 98/185/106 91/187/106 78/182/106
f 92/188/107 94/183/107 78/182/107 99/189/107
f 86/164/108 76/163/108 92/190/108 99/191/108
f 78/182/109 93/192/109 99/189/109
f 99/191/110 93/193/110 86/164/110
f 84/12/77 94/183/77 92/188/77 82/13/77
f 92/190/78 76/163/78 82/15/78
f 100/194/111 91/186/111 80/174/111 89/179/111
f 100/195/112 89/178/112 77/166/112 87/171/112
f 86/164/113 93/193/113 100/196/113 87/170/113
f 78/182/114 91/187/114 100/197/114 93/192/114
f 81/198/83 95/167/83 88/172/83 83/199/83
f 81/198/84 83/199/84 101/200/84
f 83/201/85 84/202/85 101/203/85
f 88/176/86 79/175/86 83/201/86
f 82/15/87 76/163/87 85/162/87 81/16/87
f 85/168/88 95/167/88 81/198/88
f 83/201/89 79/175/89 90/180/89 84/202/89
f 90/184/90 94/183/90 84/12/90
f 104/19/115 105/18/115 102/33/115 103/204/115
f 116/120/116 107/121/116 117/205/116 118/206/116
f 103/204/117 106/17/117 104/19/117
f 106/17/118 102/33/118 105/18/118
f 108/124/119 126/125/119 116/126/119 118/207/119
f 119/128/120 126/125/120 108/124/120 120/129/120
f 111/208/121 110/131/121 119/132/121 120/209/121
f 121/210/122 110/131/122 111/208/122 122/135/122
f 109/211/123 125/137/123 121/212/123 122/139/123
f 123/140/124 125/137/124 109/211/124 124/141/124
f 117/205/125 107/121/125 123/213/125 124/143/125
f 115/20/126 125/137/126 123/140/126 113/7/126
f 123/213/127 107/121/127 113/21/127
f 127/144/128 122/135/128 111/208/128 120/209/128
f 127/145/129 120/129/129 108/124/129 118/207/129
f 117/205/130 124/143/130 127/146/130 118/206/130
f 109/211/131 122/139/131 127/147/131 124/141/131
f 112/214/132 126/125/132 119/128/132 114/149/132
f 112/214/133 114/149/133 128/150/133
f 114/215/134 115/152/134 128/153/134
f 119/132/135 110/131/135 114/215/135
f 113/21/136 107/121/136 116/120/136 112/10/136
f 116/126/137 126/125/137 112/214/137
f 114/215/138 110/131/138 121/210/138 115/152/138
f 121/212/139 125/137/139 115/20/139
f 130/216/140 133/217/140 129/218/140 131/34/140
f 133/217/141 130/216/141 132/118/141 129/218/141
f 131/34/142 132/118/142 130/216/142
f 145/25/143 134/30/143 139/219/143
f 148/52/144 142/43/144 143/220/144
f 140/47/145 141/29/145 144/28/145 143/220/145 142/43/145
f 148/52/146 137/22/146 138/24/146 142/43/146
f 136/26/147 137/22/147 148/52/147 143/220/147
f 144/28/148 145/25/148 136/26/148 143/220/148
f 147/27/149 139/219/149 134/30/149 144/28/149
f 146/38/150 139/219/150 147/27/150 141/29/150
f 140/47/151 135/23/151 146/38/151 141/29/151
f 138/24/152 135/23/152 140/47/152 142/43/152
f 145/25/153 139/219/153 146/38/153 135/23/153 137/22/153
f 151/34/154 153/17/154 150/31/154
f 153/17/155 149/33/155 152/32/155
f 163/43/156 161/221/156 162/29/156 165/42/156 164/41/156
f 167/40/157 160/39/157 157/26/157 164/41/157
f 155/30/158 160/39/158 167/40/158 165/42/158
f 168/27/159 166/37/159 155/30/159 165/42/159
f 154/38/160 166/37/160 168/27/160 162/29/160
f 161/221/161 156/36/161 154/38/161 162/29/161
f 159/24/162 156/36/162 161/221/162 163/43/162
f 156/36/163 158/35/163 160/39/163 166/37/163
f 171/19/11 172/32/11 169/33/11 170/34/11
f 180/48/33 183/51/33 182/50/33 181/49/33
f 170/34/154 173/44/154 171/19/154
f 173/44/155 169/33/155 172/32/155
f 184/45/164 176/26/164 177/222/164
f 177/222/165 174/30/165 179/223/165
f 189/52/166 184/45/166 178/24/166 181/49/166
f 176/26/167 184/45/167 189/52/167 182/50/167
f 187/40/168 177/222/168 176/26/168 182/50/168
f 174/30/169 177/222/169 187/40/169 183/51/169
f 188/27/170 179/223/170 174/30/170 183/51/170
f 186/38/171 179/223/171 188/27/171 180/48/171
f 185/47/172 175/46/172 186/38/172 180/48/172
f 178/24/173 175/46/173 185/47/173 181/49/173
f 175/46/174 184/45/174 177/222/174 179/223/174 186/38/174
f 202/56/33 205/51/33 204/50/33 203/49/33
f 191/34/154 194/44/154 192/19/154
f 194/44/155 190/33/155 193/18/155
f 210/52/175 199/53/175 200/24/175 203/49/175
f 198/26/176 199/53/176 210/52/176 204/50/176
f 208/40/177 201/55/177 198/26/177 204/50/177
f 196/30/178 201/55/178 208/40/178 205/51/178
f 209/27/179 207/54/179 196/30/179 205/51/179
f 195/38/180 207/54/180 209/27/180 202/56/180
f 206/47/181 197/46/181 195/38/181 202/56/181
f 200/24/173 197/46/173 206/47/173 203/49/173
f 199/53/163 201/55/163 207/54/163 197/46/163
